<?xml version="1.0" encoding="UTF-8"?>
<svg id="Capa_1" data-name="Capa 1" xmlns="http://www.w3.org/2000/svg" viewBox="0 0 500 240.01">
  <defs>
    <style>
      .cls-1 {
        fill: #f9b958;
      }

      .cls-1, .cls-2, .cls-3 {
        stroke-width: 0px;
      }

      .cls-2 {
        fill: #da8928;
      }

      .cls-3 {
        fill: #fff;
      }
    </style>
  </defs>
  <g>
    <path class="cls-2" d="m86.95,128.2s0,0,0-.01c-.1.34-.15.57-.17.71.05-.22.1-.46.17-.7Z"/>
    <path class="cls-2" d="m86.96,128.16s0,0,0,0c0,0,0,.02,0,.02,0,0,0,0,0,.01,0-.01,0-.02,0-.03Z"/>
    <path class="cls-2" d="m86.99,128.04s0,0,0,0c0,.02-.01.04-.02.06,0,0,0,0,0,.01,0-.02.01-.04.02-.07Z"/>
    <path class="cls-2" d="m86.98,128.3s-.02-.07-.03-.11c0,0,0,0,0,0,0,.04.02.07.03.11h0Z"/>
    <polygon class="cls-2" points="86.96 128.16 86.96 128.16 86.96 128.16 86.96 128.16"/>
    <path class="cls-2" d="m86.98,128.31s0,0,0-.01c-.07.15-.14.36-.2.62.08-.17.15-.32.2-.43,0-.06,0-.12,0-.18Z"/>
    <path class="cls-2" d="m86.99,128.35s0-.03-.01-.04h0s0,.02.01.04Z"/>
    <path class="cls-2" d="m87,128.24s-.02-.08-.03-.13c0,.02-.01.04-.02.05,0,.04.02.09.02.14,0-.02.02-.04.03-.06Z"/>
    <path class="cls-2" d="m87.03,128.37h0c0-.06,0-.1-.01-.15,0,0,0,.01,0,.02.01.06.02.11.02.13Z"/>
    <path class="cls-2" d="m86.96,128.16s0-.01,0-.02c0,0,0,0,0,.01,0,0,0,0,0,0h0Z"/>
    <path class="cls-2" d="m86.98,128.31s0-.01,0-.02c0,0,0,0,0,0,0,0,0,0,0,.01Z"/>
    <path class="cls-2" d="m222.4,181.52l-.09-.09s-.02,0-.03-.01c0,0,0,.02,0,.02.03.02.06.05.11.08Z"/>
    <path class="cls-1" d="m480.63,154.63c-.17,0-.32.03-.49.04-3.38-4.47-8.43-7.8-14.12-9.09-1.11-.37-2.3-.57-3.56-.53-.93-.07-1.86.04-2.75.27-3.62.56-6.84,1.98-9.68,4-1.89-1.31-4-2.33-6.11-2.97-4.89-1.49-9.16-.61-12.91,1.64-5.46-2.86-12.23-3.27-17.03.16-2-1.04-4.16-1.76-6.37-2.18.11-.23.22-.49.31-.69.04-.08.07-.16.11-.23.07-.15.09-.21.03-.08.03-.07.06-.15.08-.21.02-.08.79-1.72.43-1.2,1.06-1.69,2.18-2.93,2.78-4.96,2.04-6.89-2.73-12.42-8.8-15.59,2.23-4.9,4.29-9.89,6.28-14.87.62-1.54,1.37-3.11,1.85-4.7,1.72-5.75-.48-12.43-5.71-15.6-2.91-1.76-6.37-2.49-9.69-2.01-.21-1.43-.66-2.84-1.38-4.19,5.62-5.15,10.13-12.13,14.06-18.57,4.13-6.76,5.05-14.88-.78-21-3.8-3.98-11.11-7.76-16.5-8.62-.79-.13-1.59-.18-2.4-.18-1.18-.08-2.4-.03-3.61.18-8.68,1.51-12.67,13.01-15.27,20.24-1.95,5.41-3.79,11.74-3.45,17.73-.33.17-.67.35-.99.56-1.83,1.16-3.29,2.74-4.52,4.57-.72-.62-1.5-1.21-2.36-1.76-4.16-2.66-9.83-4.81-14.86-4.95-2.23-.06-4.27.36-6.16,1.12.91-2.88,1.88-5.74,2.92-8.58.42-1.14.91-2.25,1.31-3.4,0,0,0,0,0-.01.22-.46.42-.94.64-1.4.4-.86.84-1.69,1.27-2.53.25-.47.51-.93.74-1.41-.24.29-.47.58-.71.87.53-.61,1.04-1.24,1.51-1.89,10.43-14.66-11.15-26.01-23.46-26.26-7.9-.17-12.49,6.3-15.32,12.78-4.73,10.84-8.11,22.33-10.87,33.93-4.01-1.99-8.58-3.64-13.06-3.04-1.84.25-3.49.78-5,1.61-3.85-1.68-7.86-2.86-12.07-2.52-6.7.54-12.22,4.23-17.11,8.6-.28.25-.53.53-.81.79-3.4-3.83-8.29-6.13-13.14-7.59-6.52-1.96-12.5-.99-17.76,3.46-.56.47-1.1.97-1.63,1.48-2.7-1.89-5.83-3.3-8.67-4.41-6.91-2.7-14.61-1.74-18.94,4.37-.05.06-.09.14-.15.2-.08.11-.16.21-.23.33-.1.15-.21.29-.31.45-1.52-1.22-3.2-2.25-4.86-3.13-4.28-2.25-9.32-4.29-14.24-3.63-1.84.25-3.49.78-5,1.61-3.85-1.68-7.86-2.86-12.07-2.52-6.7.54-12.22,4.23-17.11,8.6-5.76,5.14-10.06,11.71-13.45,18.67.16-.58.32-1.16.47-1.75.03-.11.05-.2.07-.28.2-.43.4-.87.61-1.3,1.36-2.73,2.98-5.32,4.61-7.9,3.08-4.85,6.33-9.61,8.63-14.9,3.19-7.33,4.62-15.1.89-22.58-.91-1.82-2.11-3.41-3.43-4.98-.13-.15-.34-.46-.49-.67-.2-.38-.39-.76-.61-1.12-2.14-3.43-4.85-6.16-8.12-8.49-11.67-8.33-28.01-7.23-40.65-1.93-23.43,9.81-44.3,38.15-34.95,64.37,1.12,3.16,2.62,5.98,4.39,8.53-4.51,2.76-8.24,7.14-11.08,11.31-4.24,6.21-6.79,14.44-6.43,21.99.68,14.29,10.1,24.99,23.18,29.83,11.42,4.22,25.38,2.91,36.64-1.22,7.66-2.81,15.01-6.96,20.94-12.57,3.04,5.18,8.01,8.89,15.65,9.91,7.2.97,13.26-1.26,18.33-5.18,5.32,4.87,12.99,6.85,19.97,4.56,3.25-1.06,6.16-2.76,8.81-4.85,3.12,2.54,6.86,4.37,10.72,5.21.41,2.17,1.07,4.24,1.98,6.19-3.95,3.62-6.85,8.66-8.07,13.5-2.54,10.03,1.08,19.99,9.54,25.91,7.23,5.06,16.33,5.55,24.76,4.06,5.58-.99,11.29-3.47,16.19-7.03,1.32,1.14,2.87,2.13,4.73,2.89,5.75,2.35,10.96,1.61,15.45-.88,5.34,3.15,11.69,2.85,17.05-.1,2.8,1.57,5.96,2.47,9.02,2.4,2.7-.06,5.2-.94,7.23-2.45,2.35,1.36,5.04,2.22,7.85,2.4,3.67.23,6.99-.8,10-2.55.73.43,1.5.84,2.35,1.18,5.75,2.35,10.96,1.61,15.45-.88,1.86,1.1,3.84,1.78,5.86,2.07-.33,3.49-.75,7.14-.29,10.61,1.04,7.72,8.2,13.08,15.63,14.08,5.18.7,10.44-1.19,13.18-5.88,1.83-3.12,1.58-6.83,1.84-10.3.25-3.24.55-5.95.93-8.65.89-.19,1.79-.45,2.68-.79,3.2-1.23,5.91-3.04,8.35-5.19.94,1.05,2.05,2.01,3.34,2.87,4.87,3.27,11.92,4.96,17.28,1.83.45-.26.87-.56,1.26-.86,2.68,1.74,5.83,2.71,9.16,2.52,3.07-.17,5.87-1.11,8.42-2.57,2.68,1.58,5.69,2.55,8.64,2.56,3.5,0,6.92-1.14,9.44-3.65,1.6-1.6,2.56-3.56,3.09-5.74.08-.6.15-1.08.2-1.5.01-.06.02-.13.03-.19.7-2.26,1.33-4.51,2.05-6.74.88.4,1.79.73,2.71,1.01,1.03,3.43,2.72,6.64,5.24,9.39,4.52,4.95,11.08,7.29,17.68,7.47,8.19.21,15.5-4.26,20.6-10.4,4.99-6.01,8.5-12.76,11.52-19.92,1.2-2.84,2.61-5.75,3.32-8.75,1.87-7.99-4.49-15.76-12.69-15.59Zm-403.42-8.57s-.02,0-.03,0h0c1.18-.25,1.18-.23.86-.15-.28.05-.55.09-.83.15Zm9.8-69.5s.04-.08.07-.13c.26-.48.51-.97.77-1.45-.34.64-.67,1.29-.97,1.95.05-.13.09-.25.13-.38Zm-.09.17c-.24.51-.59,1.12,0,0h0Zm4.18-6.94c.5-.61,1.01-1.2,1.54-1.78-.73.92-1.46,1.84-2.15,2.79-.93,1.28-1.77,2.61-2.52,3.98.49-.91.98-1.8,1.54-2.68.3-.47,1.69-2.38,1.59-2.3Zm10.91-14.4c-.01-.05-.02-.1-.03-.15-.02-.27.03-.14.03.15Zm-15.27,71.9c-.03-.15-.04-.19.02.04-.01-.03-.02-.04-.02-.04Zm.08.38c.03.12.07.27.12.46-.48-.53-.31-.67-.12-.46Zm-14.74,8.04c.27-.15.38-.21.05-.01-.02,0-.03,0-.05.01Zm9.8-2.63c-.52.29-1.07.53-1.59.82-.08.04-.14.08-.2.11-2.25.68-4.4,1.51-6.71,2-.51.11-1.04.17-1.55.3-.3.01-.6.03-.9.05,0,0,.03-.02.03-.02.09-.05.42-.24.73-.41.02,0,.03,0,.05,0-.28.18-.02.1.29-.04.75-.11,2.15-.4,1.92-.37,1.7-.23,3.35-.64,4.85-1.52,3.38-1.98,5.12-4.74,5.7-7.79.12.08.25.14.38.22.09.05.72.47.78.47.45.39.88.81,1.27,1.23,0,.02,0,.03.01.05,0,0,0,0,0,0,0-.01,0-.03-.01-.04,0,0,.01.01.02.02,0,0,0,0,0,0,0,0-.01-.02-.02-.02-.03-.13-.07-.29-.11-.44,0,.01.02.03.03.04.03.11.06.24.1.4,0,0,0,.01,0,.02,0-.02,0-.03.01-.05-.02-.1-.05-.21-.09-.32.04.07.08.15.1.26.04-.13.08-.27.14-.43-.04.13-.09.28-.13.44.01.05.02.12.02.18.1-.2.14-.18.01.15,0,0,0,0,0,.01,0,0,0,0,0-.01-.02.04-.03.07-.05.12-.02.26-.1.5-.16.57.04-.08.02-.07-.04,0,0-.02-.01-.05,0-.11v-.03s0,0,0,0c0-.01,0-.03,0-.04,0,.02,0,.03-.01.05-.01.02-.02.03-.03.06-.03.07-.1.19-.18.33-.28.35-.67.86-.74.93-.68.7-3.09,2.19-.95.97-1.02.58-1.96,1.29-2.99,1.85Zm124.19,51.17s.11.08.18.13c-.84-.09-.8-.34-.18-.13Zm16.2-2.85s.02.02.03.03c.1.05.2.11.28.15,0,.02,0,.03,0,.05-.07-.04-.13-.08-.19-.11l.18.18c-.02.31-.19.03-.29-.26-.02-.02-.04-.03-.05-.05.01,0,.03.01.04.02,0,0,0-.01,0-.02Zm-12.47-25.4c0,.26,0,.45,0,.58,0-.2,0-.38,0-.57,0,0,0,0,0-.01Zm.06,2.44c-.03-.11-.06-.22-.09-.33.3-.85.2-.09.09.33Z"/>
  </g>
  <path class="cls-1" d="m460.05,91.41c-12.63,1.36-13.73,2.46-15.09,15.09-1.36-12.63-2.46-13.73-15.09-15.09,12.63-1.36,13.73-2.46,15.09-15.09,1.36,12.63,2.46,13.73,15.09,15.09Z"/>
  <path class="cls-1" d="m35.78,171.39c-12.32,1.32-13.39,2.39-14.71,14.71-1.32-12.32-2.39-13.39-14.71-14.71,12.32-1.32,13.39-2.39,14.71-14.71,1.32,12.32,2.39,13.39,14.71,14.71Z"/>
  <g>
    <path class="cls-3" d="m100.27,89.99c0-12.91,17.85-21.75,17.85-32.71,0-4.07-1.77-8.13-6.89-8.13-13.26,0-32,19.09-32,34.47s18.21,17.33,28.64,22.63c9.02,4.42,15.2,12.02,13.08,22.63-4.24,19.8-25.99,30.41-44.73,30.23-15.56,0-29.7-10.08-26.16-27.23.88-3.89,2.47-7.6,5.13-11.14,1.94-2.65,6.54-7.6,10.43-7.6,4.77,0,11.31,6.01,12.55,10.08.18,1.06.53,2.65-.88,2.65-7.25,0-15.91,7.6-15.91,15.03,0,6.36,7.25,8.31,12.55,8.31,10.43,0,29.17-6.54,29.17-19.62,0-4.07-2.3-7.95-6.9-10.96-14.14-9.19-32.71-11.31-35.36-31.29-3.01-22.63,20.33-48.26,45.08-48.26,9.9,0,17.68,4.07,20.68,11.49,2.65,2.12,4.07,5.3,4.07,7.96,0,12.55-17.86,27.76-17.86,40.31,0,.71-.35,1.24-.88,1.24-4.42,0-11.67-4.77-11.67-10.08Z"/>
    <path class="cls-3" d="m157.9,134.37c.18-.35.18-.71.18-1.24-5.13,10.78-11.85,19.98-19.8,19.98-7.07,0-10.96-4.6-11.67-10.96-2.3-19.27,7.6-49.85,25.1-59.23,5.48-3.18,11.84,1.06,18.21,4.24.35-.53.71-1.59.88-2.3.71-1.41,1.59-2.3,2.65-2.3,3.36,0,9.19,3.18,11.31,5.13,1.94,1.41-.18,3.71-.88,5.48-5.83,15.56-10.25,36.06-12.55,48.97-.53,2.65,1.06,2.65,2.48,1.24,10.78-10.78,18.21-31.47,22.81-43.49,1.24-3,5.66-1.24,4.6,1.77-4.6,11.85-19.27,51.45-34.47,51.45-6.19,0-10.25-6.36-9.72-12.02.35-2.3.53-4.42.88-6.72Zm8.31-37.48c.53-1.59,1.06-3.18,1.77-4.6-.88-1.41-2.3-2.3-4.24-2.3-12.2,0-21.57,30.41-22.63,45.61-.18,1.95-.53,8.31,2.3,8.31,8.49,0,20.15-38.72,22.81-47.03Z"/>
    <path class="cls-3" d="m200.32,84.87c.53-1.41,1.59-2.3,2.48-2.3,3.54,0,9.37,3.18,11.49,5.13,1.77,1.41-.18,3.71-.88,5.48-3.18,8.49-6.36,18.56-8.66,28.11,6.36-13.61,15.73-30.41,24.22-37.48.88-.88,2.12-1.24,3.36-1.24,1.94,0,8.31,1.95,10.96,4.6,2.3,2.3.88,4.07-1.06,5.48-6.01,5.13-9.02,13.97-9.37,20.15-.18,4.42,1.41,6.36,3.36,6.36,7.43,0,14.5-14.14,17.86-19.8,1.77-2.65,5.83-.18,4.24,2.65-3.89,6.36-11.31,20.15-19.8,23.16-6.01,2.3-17.15-3.18-18.03-10.96-.53-5.3,2.12-13.61,4.77-18.92.71-1.59.18-1.24-.53-.35-11.49,13.79-25.1,44.73-25.99,56.22,0,1.77-1.06,1.95-2.12,1.95-4.24,0-11.14-4.77-11.14-8.49,1.59-18.56,7.43-42.78,14.85-59.75Z"/>
    <path class="cls-3" d="m272.81,134.37c.18-.35.18-.71.18-1.24-5.13,10.78-11.85,19.98-19.8,19.98-7.07,0-10.96-4.6-11.67-10.96-2.3-19.27,7.6-49.85,25.1-59.23,5.48-3.18,11.84,1.06,18.21,4.24.35-.53.71-1.59.88-2.3.71-1.41,1.59-2.3,2.65-2.3,3.36,0,9.19,3.18,11.31,5.13,1.94,1.41-.18,3.71-.88,5.48-5.83,15.56-10.25,36.06-12.55,48.97-.53,2.65,1.06,2.65,2.48,1.24,10.78-10.78,18.21-31.47,22.81-43.49,1.24-3,5.66-1.24,4.6,1.77-4.6,11.85-19.27,51.45-34.47,51.45-6.19,0-10.25-6.36-9.72-12.02.35-2.3.53-4.42.88-6.72Zm8.31-37.48c.53-1.59,1.06-3.18,1.77-4.6-.88-1.41-2.3-2.3-4.24-2.3-12.2,0-21.57,30.41-22.63,45.61-.18,1.95-.53,8.31,2.3,8.31,8.49,0,20.15-38.72,22.81-47.03Z"/>
    <path class="cls-3" d="m341.75,93c-12.38,13.26-23.51,35.18-26.87,51.45-.35,2.12-.71,4.42-.71,6.54,0,1.41-.53,2.12-2.12,2.12-4.24,0-11.67-3.89-11.67-7.78,0-31.11,17.86-106.25,25.28-106.25,3.54,0,15.38,4.6,15.38,7.25,0,.35-.18.71-.35.88-.88,1.06-1.59,1.77-2.12,3-6.9,12.2-15.03,44.02-19.98,69.3,6.54-13.97,16.09-27.76,25.63-35.71,1.06-.88,2.12-1.24,3.36-1.24,2.65,0,12.02,3.18,12.02,6.54,0,.71-.35,1.24-.53,1.95-.71,1.41-1.41,2.83-1.95,4.42-5.66,15.2-10.25,34.3-12.55,46.67-.35,2.65.71,3,2.65,1.24,10.61-10.78,18.74-31.47,23.51-43.49,1.06-3,5.66-1.24,4.42,1.77-4.6,11.85-19.98,51.45-35.18,51.45-6.01,0-10.25-6.36-9.55-12.02,1.59-15.2,5.83-33.24,11.31-48.09Z"/>
    <path class="cls-3" d="m360.67,134.37c2.65-16.62,7.6-35.53,13.61-49.5.71-1.41,1.59-2.3,2.65-2.3,3.36,0,9.19,3.18,11.31,5.13,1.95,1.41-.18,3.71-.71,5.48-6.01,15.56-11.14,36.06-13.44,48.97-.53,2.65,1.06,2.65,2.48,1.24,10.78-10.78,18.92-31.47,23.51-43.49,1.24-3,5.66-1.24,4.6,1.77-4.6,11.85-19.98,51.45-35.18,51.45-6.19,0-10.25-6.36-9.72-12.02.35-2.3.53-4.42.88-6.72Zm31.82-88.57c1.95.18,7.07,2.48,10.43,4.77,2.65,1.77,2.65,4.07.71,7.25-3.18,5.3-12.73,19.62-16.97,19.8-10.08.35-.71-22.63,1.59-26.87,1.59-3.18,3-4.95,4.24-4.95Z"/>
  </g>
  <g>
    <path class="cls-3" d="m226.48,162.57c0-7.54,10.44-12.71,10.44-19.12,0-2.38-1.03-4.75-4.03-4.75-7.75,0-18.71,11.16-18.71,20.16s10.65,10.13,16.75,13.23c5.27,2.58,8.89,7.03,7.65,13.23-2.48,11.58-15.19,17.78-26.15,17.67-9.1,0-17.37-5.89-15.3-15.92.52-2.27,1.45-4.44,3-6.51,1.14-1.55,3.82-4.44,6.1-4.44,2.79,0,6.62,3.51,7.34,5.89.1.62.31,1.55-.52,1.55-4.24,0-9.3,4.44-9.3,8.79,0,3.72,4.24,4.86,7.34,4.86,6.1,0,17.05-3.82,17.05-11.47,0-2.38-1.34-4.65-4.03-6.41-8.27-5.38-19.12-6.62-20.67-18.3-1.76-13.23,11.89-28.22,26.36-28.22,5.79,0,10.34,2.38,12.09,6.72,1.55,1.24,2.38,3.1,2.38,4.65,0,7.34-10.44,16.23-10.44,23.57,0,.41-.21.72-.52.72-2.58,0-6.82-2.79-6.82-5.89Z"/>
    <path class="cls-3" d="m260.18,188.51c.1-.21.1-.41.1-.72-3,6.31-6.92,11.68-11.58,11.68-4.14,0-6.41-2.69-6.82-6.41-1.34-11.27,4.44-29.15,14.68-34.63,3.2-1.86,6.93.62,10.65,2.48.21-.31.41-.93.52-1.34.41-.83.93-1.34,1.55-1.34,1.96,0,5.37,1.86,6.62,3,1.14.83-.1,2.17-.52,3.2-3.41,9.1-5.99,21.09-7.34,28.63-.31,1.55.62,1.55,1.45.72,6.31-6.3,10.65-18.4,13.33-25.43.72-1.76,3.31-.72,2.69,1.03-2.69,6.92-11.27,30.08-20.15,30.08-3.62,0-5.99-3.72-5.69-7.03.21-1.34.31-2.58.52-3.93Zm4.86-21.91c.31-.93.62-1.86,1.03-2.69-.52-.83-1.34-1.34-2.48-1.34-7.13,0-12.61,17.78-13.23,26.67-.1,1.14-.31,4.86,1.34,4.86,4.96,0,11.78-22.64,13.33-27.49Z"/>
    <path class="cls-3" d="m284.98,159.57c.31-.83.93-1.34,1.45-1.34,2.07,0,5.48,1.86,6.72,3,1.03.83-.1,2.17-.52,3.2-1.86,4.96-3.72,10.85-5.07,16.43,3.72-7.96,9.2-17.78,14.16-21.91.52-.52,1.24-.72,1.96-.72,1.45,0,6.93,1.86,6.93,3.82,0,.41-.1.72-.31,1.14-.41.83-.72,1.65-1.14,2.58-3.2,8.89-5.99,20.05-7.24,27.29-.31,1.55.41,1.76,1.45.72,6.3-6.3,11.06-18.4,13.75-25.43.72-1.76,3.31-.72,2.69,1.03-2.69,6.92-11.68,30.08-20.57,30.08-3.62,0-6.31-2.79-5.99-5.48,1.03-8.79,3.82-20.98,6.92-29.66-6.92,7.44-15.61,26.98-16.12,34.01,0,1.03-.62,1.14-1.24,1.14-2.48,0-6.51-2.79-6.51-4.96.93-10.85,4.34-25.01,8.68-34.94Z"/>
    <path class="cls-3" d="m329.11,188.51c.1-.21.1-.41.1-.72-3,6.31-6.92,11.68-11.58,11.68-4.14,0-6.41-2.69-6.82-6.41-1.34-11.27,4.44-29.15,14.68-34.63,3.2-1.86,6.93.62,10.65,2.48.21-.31.41-.93.52-1.34.41-.83.93-1.34,1.55-1.34,1.96,0,5.37,1.86,6.62,3,1.14.83-.1,2.17-.52,3.2-3.41,9.1-5.99,21.09-7.34,28.63-.31,1.55.62,1.55,1.45.72,6.31-6.3,10.65-18.4,13.33-25.43.72-1.76,3.31-.72,2.69,1.03-2.69,6.92-11.27,30.08-20.15,30.08-3.62,0-5.99-3.72-5.69-7.03.21-1.34.31-2.58.52-3.93Zm4.86-21.91c.31-.93.62-1.86,1.03-2.69-.52-.83-1.34-1.34-2.48-1.34-7.13,0-12.61,17.78-13.23,26.67-.1,1.14-.31,4.86,1.34,4.86,4.96,0,11.78-22.64,13.33-27.49Z"/>
    <path class="cls-3" d="m355.36,157.4c2.07,0,8.99,2.69,8.99,4.34,0,.21-.1.31-.21.52-.41.52-.93,1.03-1.24,1.65-1.24,2.17-2.38,5.17-3.52,8.89,2.07-3.82,4.44-7.55,6.93-10.96,2.07-2.79,4.44-4.86,6.82-4.86,4.44,0,8.48,5.58,8.48,8.99,0,5.79-2.69,12.51-5.89,18.5,4.86-3.62,9.3-8.79,12.3-16.23.72-1.65,3.31-.62,2.69,1.14-3.62,8.89-10.13,16.12-18.6,20.67-4.03,5.48-8.79,9.41-12.4,9.41-2.69,0-4.75-.93-5.89-1.96-1.86,10.75-3.1,20.88-3.1,25.43,0,.83-.31,1.24-1.24,1.24-2.48,0-6.82-2.38-6.82-4.55,0-17.57,8.37-62.22,12.71-62.22Zm-.21,33.08c-.21.83-.31,1.55-.52,2.38.83-.52,1.76-.72,2.69-.83,1.65-.1,3.72-.72,5.89-1.45,3.93-5.38,8.48-15.81,8.89-24.91,0-1.96-.62-3.1-1.55-3-.52,0-1.14.31-1.65.93-6.51,7.75-10.96,17.26-13.75,26.87Z"/>
    <path class="cls-3" d="m405.7,164.32c-7.24,7.75-13.75,20.57-15.71,30.08-.21,1.24-.41,2.58-.41,3.82,0,.83-.31,1.24-1.24,1.24-2.48,0-6.82-2.27-6.82-4.55,0-18.19,10.44-62.12,14.78-62.12,2.07,0,8.99,2.69,8.99,4.24,0,.21-.1.41-.21.52-.52.62-.93,1.03-1.24,1.76-4.03,7.13-8.79,25.74-11.68,40.52,3.82-8.17,9.41-16.23,14.99-20.88.62-.52,1.24-.72,1.96-.72,1.55,0,7.03,1.86,7.03,3.82,0,.41-.21.72-.31,1.14-.41.83-.83,1.65-1.14,2.58-3.31,8.89-5.99,20.05-7.34,27.29-.21,1.55.41,1.76,1.55.72,6.2-6.3,10.96-18.4,13.75-25.43.62-1.76,3.31-.72,2.58,1.03-2.69,6.92-11.68,30.08-20.57,30.08-3.51,0-5.99-3.72-5.58-7.03.93-8.89,3.41-19.43,6.62-28.11Z"/>
    <path class="cls-3" d="m424.82,159.57c.31-.83.93-1.34,1.45-1.34,2.07,0,5.48,1.86,6.72,3,1.03.83-.1,2.17-.52,3.2-1.86,4.96-3.72,10.85-5.07,16.43,3.72-7.96,9.2-17.78,14.16-21.91.52-.52,1.24-.72,1.96-.72,1.14,0,4.86,1.14,6.41,2.69,1.34,1.34.52,2.38-.62,3.2-3.51,3-5.27,8.17-5.48,11.78-.1,2.58.83,3.72,1.96,3.72,4.34,0,8.48-8.27,10.44-11.58,1.03-1.55,3.41-.1,2.48,1.55-2.27,3.72-6.62,11.78-11.58,13.54-3.51,1.34-10.03-1.86-10.54-6.41-.31-3.1,1.24-7.96,2.79-11.06.41-.93.1-.72-.31-.21-6.72,8.06-14.68,26.15-15.19,32.87,0,1.03-.62,1.14-1.24,1.14-2.48,0-6.51-2.79-6.51-4.96.93-10.85,4.34-25.01,8.68-34.94Z"/>
    <path class="cls-3" d="m467.3,157.81c3.93,0,10.85,5.27,10.85,9.82,0,9.61-11.27,17.05-19.23,17.05-.21,5.48,1.45,9.92,6.2,9.92,8.37,0,15.92-16.95,19.43-26.36.62-1.76,3.31-.62,2.58,1.14-3.72,10.13-11.99,30.08-23.67,30.08-24.91,0-10.96-41.65,3.82-41.65Zm-8.17,24.5c5.58,0,11.78-8.37,11.78-16.64,0-2.17-1.76-2.89-3.31-1.65-4.13,3.1-7.65,11.27-8.48,18.3Z"/>
  </g>
</svg>