<?xml version="1.0" encoding="UTF-8"?>
<svg id="Capa_1" data-name="Capa 1" xmlns="http://www.w3.org/2000/svg" viewBox="0 0 100 100">
  <defs>
    <style>
      .cls-1 {
        fill-rule: evenodd;
        stroke-width: 0px;
      }
    </style>
  </defs>
  <path class="cls-1" d="m50,98.83C23.07,98.83,1.17,76.93,1.17,50S23.07,1.17,50,1.17s48.83,21.91,48.83,48.83-21.91,48.83-48.83,48.83Zm25.32-31.68c.6,0,1.09-.49,1.09-1.09v-30.66l-24.85,19.73c-.46.37-1.02.55-1.57.55s-1.11-.18-1.57-.55l-24.85-19.73v30.66c0,.6.49,1.09,1.09,1.09h50.65Zm-3.81-34.31l-21.52,17.09-21.52-17.09h43.03Zm9.95,1.09v32.13c0,3.39-2.76,6.14-6.14,6.14H24.68c-3.39,0-6.14-2.76-6.14-6.14v-32.13c0-3.39,2.76-6.14,6.14-6.14h50.65c3.39,0,6.14,2.76,6.14,6.14Z"/>
</svg>