<?xml version="1.0" encoding="UTF-8"?>
<svg id="Capa_1" data-name="Capa 1" xmlns="http://www.w3.org/2000/svg" viewBox="0 0 51.83 50">
  <defs>
    <style>
      .cls-1 {
        stroke-width: 0px;
      }
    </style>
  </defs>
  <path class="cls-1" d="m30.49,25c0,2.53-2.05,4.57-4.57,4.57s-4.57-2.05-4.57-4.57,2.05-4.57,4.57-4.57,4.57,2.05,4.57,4.57Z"/>
  <path class="cls-1" d="m36.62,16.91c-.22-.6-.57-1.14-1.03-1.58-.44-.46-.98-.81-1.58-1.03-.48-.19-1.21-.41-2.55-.47-1.45-.07-1.88-.08-5.55-.08s-4.1.01-5.55.08c-1.34.06-2.06.28-2.55.47-.6.22-1.14.57-1.58,1.03-.46.44-.81.98-1.03,1.58-.19.48-.41,1.21-.47,2.55-.07,1.45-.08,1.88-.08,5.55s.01,4.1.08,5.55c.06,1.34.28,2.06.47,2.55.22.6.57,1.14,1.03,1.58.44.46.98.81,1.58,1.03.48.19,1.21.41,2.55.47,1.45.07,1.88.08,5.55.08s4.1-.01,5.55-.08c1.34-.06,2.06-.28,2.55-.47,1.2-.46,2.14-1.41,2.6-2.6.19-.48.41-1.21.47-2.55.07-1.45.08-1.88.08-5.55s-.01-4.1-.08-5.55c-.06-1.34-.28-2.06-.47-2.55Zm-10.7,15.14c-3.89,0-7.05-3.16-7.05-7.05s3.16-7.05,7.05-7.05,7.05,3.16,7.05,7.05-3.16,7.05-7.05,7.05Zm7.33-12.73c-.91,0-1.65-.74-1.65-1.65s.74-1.65,1.65-1.65,1.65.74,1.65,1.65c0,.91-.74,1.65-1.65,1.65Z"/>
  <path class="cls-1" d="m25.92,1.1C12.72,1.1,2.02,11.8,2.02,25s10.7,23.9,23.9,23.9,23.9-10.7,23.9-23.9S39.11,1.1,25.92,1.1Zm13.64,29.56c-.07,1.46-.3,2.46-.64,3.33-.71,1.84-2.17,3.3-4.01,4.01-.87.34-1.87.57-3.33.64-1.46.07-1.93.08-5.66.08s-4.19-.02-5.66-.08c-1.46-.07-2.46-.3-3.33-.64-.92-.34-1.75-.88-2.43-1.58-.7-.69-1.24-1.51-1.58-2.43-.34-.87-.57-1.87-.64-3.33-.07-1.46-.08-1.93-.08-5.66s.02-4.19.08-5.66c.07-1.46.3-2.46.64-3.33.34-.92.89-1.75,1.58-2.43.69-.7,1.51-1.24,2.43-1.58.87-.34,1.87-.57,3.33-.64,1.46-.07,1.93-.08,5.66-.08s4.19.02,5.66.08c1.46.07,2.46.3,3.33.64.92.34,1.75.89,2.43,1.58.7.69,1.24,1.51,1.58,2.43.34.87.57,1.87.64,3.33.07,1.46.08,1.93.08,5.66s-.02,4.19-.08,5.66Z"/>
</svg>