<?xml version="1.0" encoding="UTF-8"?>
<svg id="Capa_1" data-name="Capa 1" xmlns="http://www.w3.org/2000/svg" viewBox="0 0 100 100">
  <defs>
    <style>
      .cls-1 {
        stroke-width: 0px;
      }
    </style>
  </defs>
  <path class="cls-1" d="m59.35,50c0,5.16-4.18,9.35-9.35,9.35s-9.35-4.18-9.35-9.35,4.18-9.35,9.35-9.35,9.35,4.18,9.35,9.35Z"/>
  <path class="cls-1" d="m71.86,33.46c-.45-1.22-1.17-2.32-2.1-3.22-.9-.93-2.01-1.65-3.22-2.1-.99-.38-2.47-.84-5.21-.96-2.96-.13-3.84-.16-11.33-.16s-8.37.03-11.33.16c-2.73.13-4.22.58-5.21.97-1.22.45-2.32,1.17-3.22,2.1-.93.9-1.65,2.01-2.1,3.22-.38.99-.84,2.47-.96,5.21-.13,2.96-.16,3.84-.16,11.33s.03,8.37.16,11.33c.12,2.73.58,4.22.96,5.21.45,1.22,1.17,2.32,2.1,3.22.9.93,2.01,1.65,3.22,2.1.99.38,2.47.84,5.21.97,2.96.13,3.84.16,11.33.16s8.38-.03,11.33-.16c2.73-.12,4.22-.58,5.21-.97,2.45-.94,4.38-2.88,5.32-5.32.38-.99.84-2.47.97-5.21.13-2.96.16-3.84.16-11.33s-.03-8.37-.16-11.33c-.12-2.73-.58-4.22-.97-5.21Zm-21.86,30.94c-7.95,0-14.4-6.45-14.4-14.4s6.45-14.4,14.4-14.4,14.4,6.45,14.4,14.4-6.45,14.4-14.4,14.4Zm14.97-26c-1.86,0-3.37-1.51-3.37-3.37s1.51-3.37,3.37-3.37,3.37,1.51,3.37,3.37c0,1.86-1.51,3.37-3.37,3.37Z"/>
  <path class="cls-1" d="m50,1.17C23.03,1.17,1.17,23.03,1.17,50s21.87,48.83,48.83,48.83,48.83-21.87,48.83-48.83S76.97,1.17,50,1.17Zm27.87,60.39c-.14,2.99-.61,5.02-1.3,6.81-1.46,3.77-4.43,6.74-8.2,8.2-1.78.69-3.82,1.17-6.81,1.3-2.99.14-3.95.17-11.56.17s-8.57-.03-11.56-.17c-2.98-.14-5.02-.61-6.81-1.3-1.87-.7-3.57-1.81-4.97-3.23-1.43-1.4-2.53-3.1-3.23-4.97-.69-1.78-1.17-3.82-1.3-6.81-.14-2.99-.17-3.95-.17-11.56s.03-8.57.17-11.56c.14-2.99.61-5.02,1.3-6.81.7-1.87,1.81-3.57,3.24-4.97,1.4-1.43,3.1-2.53,4.97-3.23,1.78-.69,3.82-1.17,6.81-1.3,2.99-.14,3.95-.17,11.56-.17s8.57.03,11.56.17c2.99.14,5.02.61,6.81,1.3,1.87.7,3.57,1.81,4.97,3.24,1.43,1.4,2.53,3.1,3.23,4.97.69,1.78,1.17,3.82,1.3,6.81.14,2.99.17,3.95.17,11.56s-.03,8.57-.17,11.56Z"/>
</svg>