<?xml version="1.0" encoding="UTF-8"?>
<svg id="Capa_1" data-name="Capa 1" xmlns="http://www.w3.org/2000/svg" viewBox="0 0 50 50">
  <defs>
    <style>
      .cls-1 {
        fill-rule: evenodd;
        stroke-width: 0px;
      }
    </style>
  </defs>
  <path class="cls-1" d="m25,48.9c-13.18,0-23.9-10.72-23.9-23.9S11.82,1.1,25,1.1s23.9,10.72,23.9,23.9-10.72,23.9-23.9,23.9Zm12.39-15.5c.29,0,.53-.24.53-.53v-15.01l-12.16,9.66c-.23.18-.5.27-.77.27s-.54-.09-.77-.27l-12.16-9.66v15.01c0,.29.24.53.53.53h24.79Zm-1.86-16.79l-10.53,8.36-10.53-8.36h21.06Zm4.87.53v15.72c0,1.66-1.35,3.01-3.01,3.01H12.61c-1.66,0-3.01-1.35-3.01-3.01v-15.72c0-1.66,1.35-3.01,3.01-3.01h24.79c1.66,0,3.01,1.35,3.01,3.01Z"/>
</svg>